<svg width="32" height="20" viewBox="0 0 32 20" fill="none" xmlns="http://www.w3.org/2000/svg">
<path d="M31.2632 0H0.315789C0.142105 0 0 0.102273 0 0.227273V2.04545C0 2.17045 0.142105 2.27273 0.315789 2.27273H31.2632C31.4368 2.27273 31.5789 2.17045 31.5789 2.04545V0.227273C31.5789 0.102273 31.4368 0 31.2632 0ZM31.2632 17.7273H0.315789C0.142105 17.7273 0 17.8295 0 17.9545V19.7727C0 19.8977 0.142105 20 0.315789 20H31.2632C31.4368 20 31.5789 19.8977 31.5789 19.7727V17.9545C31.5789 17.8295 31.4368 17.7273 31.2632 17.7273ZM31.2632 8.86364H0.315789C0.142105 8.86364 0 8.96591 0 9.09091V10.9091C0 11.0341 0.142105 11.1364 0.315789 11.1364H31.2632C31.4368 11.1364 31.5789 11.0341 31.5789 10.9091V9.09091C31.5789 8.96591 31.4368 8.86364 31.2632 8.86364Z" fill="white"/>
</svg>
